<?xml version="1.0" encoding="utf-8"?>
<!-- Generator: Adobe Illustrator 24.0.1, SVG Export Plug-In . SVG Version: 6.00 Build 0)  -->
<svg version="1.1" id="_x35_fe9610c-ed4b-4dad-94b8-73732c8fe9bd"
	 xmlns="http://www.w3.org/2000/svg" xmlns:xlink="http://www.w3.org/1999/xlink" x="0px" y="0px" viewBox="0 0 266.1 266.1"
	 style="enable-background:new 0 0 266.1 266.1;" xml:space="preserve">
<style type="text/css">
	.st0{fill:#665B63;}
</style>
<title>logo</title>
<path class="st0" d="M227.7,227.2c1.7,0.2,3.4,0.6,5,1c1.6,0.5,3.1,1.1,4.6,1.6c1.7,0.6,3.5,1.3,5.3,1.8c1.6,0.4,3.3,0.6,5,0.7
	c0.7,0.1,1.4,0.1,2,0.2l0.2-0.7l-0.4-0.2c-0.3-0.2-0.7-0.4-1.1-0.5c-1-0.2-2-0.4-3-0.6c-1.5-0.3-3-0.5-4.5-0.9
	c-4.1-1.1-8-2.7-11.7-4.8c-0.7,0.8-1.4,1.5-2.2,2.2L227.7,227.2z"/>
<path class="st0" d="M209.3,202.4c-2.9-6.3-4.9-13.1-6.8-19.6c-0.3-1.1-0.6-2.1-0.9-3.2c-1.6-5.4-3-11-4.4-16.3
	c-0.7-2.9-1.5-5.9-2.3-8.9c-1.1-4-3.2-6-6.2-6l0,0c-4.4,0-8.9,0.2-13.3,0.4l-2.7,0.1c-1.7,0.1-3.4,0.2-5,0.3
	c-3.4,0.3-6.7,0.4-10.1,0.3c-3.8-0.1-6.4-1.7-7.7-4.6l-0.1-0.3l0.3-0.1l1.3-0.4c0.7-0.3,1.5-0.5,2.3-0.6c2.7-0.4,5.4-0.8,8-1.2
	c4-0.6,8-1.2,12-1.8c2.6-0.4,5.1-0.9,7.6-1.4c3.9-0.8,7.8-1.5,11.8-2c5.8-0.7,10.2,1.5,12.8,6.5c1.6,3.2,3.4,6.5,5,9.6
	c1.3,2.4,2.6,4.9,3.8,7.3c1.8,3.4,3.6,6.9,5.3,10.3c2.8,5.4,5.6,10.9,8.5,16.3c2.2,4.2,4.5,8.5,8.6,11.4c3,2.1,5.6,2.3,8.3,0.6
	l0.4-0.7c-0.4,0-0.7,0-1.1,0.1c-2.5,1-5.3,0.4-7.1-1.5l-0.4-0.4c-1.7-1.5-3.3-3.3-4.5-5.2c-2.7-4.7-5.3-9.7-7.8-14.4l-1.4-2.7
	c-1.9-3.6-3.8-7.3-5.6-10.9c-2.9-5.7-5.9-11.5-9-17.2l-0.6-1.1c-1.7-3.3-3.5-6.6-7.3-8.1c-1.8-0.6-3.1-2-3.7-3.8
	c-1.8-4.6-5.4-7.3-10.6-7.9c-1.2-0.2-2.4-0.6-3.5-1.3c-3.6-2.4-7.1-4.8-10.6-7.2c-5.2-3.6-10.6-7.2-16-10.8c-1-0.5-2.1-0.6-3.2-0.1
	c-0.6,1-0.8,2.1-0.5,3.2c0.5,1.2,1,2.4,1.8,3.5c0.3,0.5,0.7,1.1,1,1.7l0.3,0.5l-0.5-0.1l-0.8-0.1c-0.4-0.1-0.9-0.2-1.3-0.3
	c-1.5-0.5-2.9-1-4.3-1.5c-3.2-1.1-6.6-2.3-9.9-3.3c-1.3-0.4-3.6-0.2-4.4,0.6c-0.8,1.3-0.9,2.9-0.3,4.2c1.9,2.8,4.1,5.3,6.6,7.5
	c1.3,1.1,2.8,2.1,4.3,2.9c0.8,0.5,1.6,1,2.5,1.5l0.7,0.4l-2.2,0.1l-1.6,0.1c-0.9,0-1.8,0.1-2.7,0.1c-2.2,0-4.4,0.1-6.6,0.4
	c-1.3,0.3-2.4,1.2-3.1,2.3c-0.1,1.1,0.4,2.2,1.2,2.9c2.9,1.8,6,3.3,9.3,4.3c3.7,1,7.6,1.6,11.3,2.3c1.6,0.3,3.2,0.6,4.8,0.9l0.9,0.2
	l-0.9,0.3c-1.5,0.5-3,0.9-4.5,1.2c-1,0.2-2,0.4-2.9,0.6c-1.3,0.4-3,1.5-3.1,2.2c0.1,1.5,0.8,2.8,2,3.7c3.2,2.4,7.2,3.2,12.6,2.8
	c1.7-0.2,3.5-0.3,5.2-0.5c2.9-0.2,6-0.5,8.9-0.8c2.2-0.3,3,0.8,3.4,2.5c1.3,5.1,2.6,10.2,3.9,15.2c0.7,2.7,1.4,5.4,2.1,8.1
	c0.1,0.5,0.2,1.1,0.3,1.6c0,0.2,0.1,0.5,0.1,0.8v0.2l-1.3,0.8l-0.1-0.2c-1.3-1.4-2.5-2.8-3.8-4.1c-2.9-3.2-6-6.5-8.8-9.9
	c-2.2-2.6-4.8-5.1-8.6-5.9c-0.9-0.2-1.9-0.3-2.8-0.3c-1.6-0.1-3.1,0.6-3.9,1.9c-1.2,1.9,0,3.3,1.1,4.9l0.5,0.6
	c3.3,4.5,6.6,9.2,9.8,13.6l5.2,7.2c1.5,2.1,3,4.3,4.4,6.4c3.2,4.9,6.7,9.6,10.5,14c8.9,9.8,20.4,16.2,34.4,19.1l1-0.9l-3.2-1
	c-2.6-0.8-5.2-1.6-7.8-2.5c-13.7-5-24.7-14.7-34.7-30.5c-3.8-6-8-11.8-12-17.5c-2.1-3-4.3-6.1-6.5-9.1c-0.4-0.7-0.8-1.4-1-2.2
	c-0.1-0.4-0.2-0.7-0.4-1l-0.1-0.3l0.3-0.1c0.4-0.1,0.8-0.3,1.2-0.4c0.9-0.4,1.8-0.7,2.8-0.7c3.9,0.2,6.5,2.8,8.7,5.2l1.1,1.2
	c4,4.4,8.2,8.9,12.6,13.1c1.6,1.5,2.6,2.7,1.7,5.3l-0.1,0.2c-0.5,1.6-1.1,3.4,0.2,5c1-7.1,4.2-12.7,9.9-17.7l0.3-0.3l0.1,0.4
	l1.1,3.9c0.7,2.4,1.3,4.6,1.9,6.8c2.5,9,5.4,18.5,10.6,26.7c2.3,3.3,5,6.3,8,9c1.2,1.2,2.5,2.4,3.7,3.6c0.5,0.5,1,0.9,1.6,1.3
	c0.3,0.2,0.5,0.4,0.8,0.6l0.1,0.1l1-1C219.4,218.6,213.5,211.5,209.3,202.4z M155.1,110l-0.7-1.1c-0.1-0.4-0.1-0.8,0-1.2
	c0-0.3,0.1-0.6,0.1-1v-0.4l23,15.2l-0.4,1.2l-0.3-0.1c-2.3-1.1-4.6-1.9-7.1-2.5c-4.1-1.2-8.3-2.4-11.5-5.7
	C157,112.9,155.9,111.5,155.1,110z M141.2,120.3c-2-1.7-3.7-3.6-5.2-5.7c-0.3-0.7-0.4-1.5-0.3-2.3c0-0.3,0-0.7,0-1V111h0.3
	c0.3,0,0.6,0,0.9-0.1c0.7-0.1,1.4-0.1,2.1,0.1c9.9,3.3,20,6.8,29.7,10.1l8.8,3c0.4,0.1,0.9,0.3,1.3,0.4l0.9,0.3l-0.8,1.1h-0.1
	c-2.4,0.1-4.7,0.2-7,0.3c-4.8,0.2-9.7,0.5-14.6,0.5h-2C149.6,126.6,145,123.3,141.2,120.3z M158.5,138.8c-1.1-0.3-2.3-0.6-3.5-0.8
	l-2.4-0.4c-4.1-0.8-8.3-1.5-12.4-2.6c-1.6-0.5-3.1-1.3-4.5-2.4l-1-0.7c-0.6-0.5-0.8-1.3-0.7-2c0.4-0.6,1.1-1,1.8-1
	c5.4-0.2,10.9-0.4,16.2-0.6l6.5-0.2l6.9-0.3c4.5-0.2,9.1-0.4,13.6-0.5h1.4c2.7-0.2,5.5-0.2,8.2,0c3.7,0.5,6.2,2.9,7.5,7.5l0.1,0.3
	h-0.3c-2.9,0.5-5.7,1-8.5,1.5c-7,1.3-13.7,2.5-20.5,3.2c-0.5,0-0.9,0.1-1.4,0.1C163.3,139.8,160.9,139.4,158.5,138.8L158.5,138.8z
	 M196.2,171.4c-1.4,1.7-2.8,3.4-4.3,5.1l-1.8,2.1l-0.3,0.4l-0.1-0.5l-8-28.4h0.3c0.8,0,1.5-0.1,2.2-0.1c1.5-0.1,3-0.2,4.5-0.1
	c2.2,0.2,3.9,1.7,4.5,4.2c1.3,5,2.5,9.9,3.6,14.7C197,169.7,196.8,170.7,196.2,171.4z"/>
<path class="st0" d="M237,198.9c-4.1-2.9-6.4-7.2-8.7-11.5c-4.6-8.9-9.2-17.8-13.8-26.6c-2.9-5.7-6-11.3-8.9-17
	c-2.7-5.2-7.2-7-12.5-6.4c-6.5,0.8-12.9,2.4-19.4,3.4c-6.7,1.1-13.4,2-20.1,3c-1.2,0.3-2.4,0.6-3.5,1c1.6,3.4,4.6,4.4,7.5,4.5
	c5,0.2,10-0.4,15.1-0.6c5.3-0.2,10.6-0.5,16-0.5c3.3,0,5.5,2.2,6.5,6.2c2.2,8.4,4.2,16.9,6.7,25.2c2.3,7.7,4.4,15.5,7.7,22.8
	c3.8,8.5,9.9,15.8,17.6,21l0.2-0.2c-7.8-5.1-13.9-12.4-17.6-20.9c-2.9-6.2-4.9-13-6.8-19.6l-0.9-3.2c-1.6-5.4-3-10.9-4.4-16.3
	c-0.7-2.9-1.5-5.9-2.3-8.9c-1.1-4.2-3.5-6.4-6.8-6.4l0,0c-4.4,0-8.9,0.2-13.3,0.4l-2.7,0.1c-1.7,0.1-3.4,0.2-5,0.3
	c-3.3,0.3-6.7,0.4-10,0.3c-3.5-0.1-5.8-1.5-7.1-4.1l1-0.3c0.7-0.2,1.5-0.4,2.2-0.6c2.7-0.4,5.4-0.8,8-1.2c4-0.6,8-1.2,12-1.8
	c2.6-0.4,5.2-0.9,7.7-1.4c3.8-0.8,7.8-1.5,11.8-2c5.6-0.7,9.8,1.5,12.3,6.2c1.7,3.2,3.4,6.5,5,9.7c1.3,2.4,2.6,4.9,3.8,7.3
	c1.8,3.4,3.6,6.9,5.3,10.3c2.8,5.4,5.6,10.9,8.5,16.3c2.2,4.2,4.5,8.6,8.8,11.6c2.9,2,5.5,2.3,8.1,1.1l0.3-0.4
	C242.4,201.2,239.8,200.8,237,198.9z"/>
<path class="st0" d="M249.7,231.3c-0.4-0.3-0.8-0.5-1.3-0.6c-1-0.2-2-0.4-3-0.6c-1.5-0.3-3-0.5-4.5-0.9c-4-1.1-7.8-2.7-11.5-4.7
	l-0.2,0.2c3.6,2.1,7.5,3.7,11.6,4.8c2.5,0.7,5,1,7.5,1.5c0.6,0.2,1.2,0.5,1.7,0.9l-0.3,1.1c-2.5-0.2-4.9-0.5-7.3-1
	c-3.4-0.9-6.6-2.4-9.9-3.4c-1.9-0.5-3.8-0.9-5.8-1.2l-0.2,0.2l1,0.2c1.7,0.2,3.4,0.6,5,1c1.6,0.5,3.1,1,4.6,1.6
	c1.7,0.6,3.5,1.3,5.3,1.8c1.7,0.4,3.4,0.7,5.1,0.8c0.8,0.1,1.5,0.1,2.3,0.2h0.2l0.4-1.5l-0.2-0.1
	C250.1,231.5,249.9,231.4,249.7,231.3z"/>
<path class="st0" d="M176.8,122.3l0.3-0.7l-22.4-14.8c-0.1,1-0.3,1.7-0.1,2c1.1,1.9,2.3,3.7,3.7,5.3
	C163.4,119.3,170.8,119.2,176.8,122.3z M154.8,108.6c-0.1-0.3-0.1-0.6,0-0.9c0-0.2,0-0.4,0.1-0.6l21.9,14.4l-0.1,0.2
	c-2.2-1-4.5-1.8-6.9-2.4c-4-1.2-8.1-2.4-11.3-5.6c-1.1-1.3-2.2-2.6-3-4.1L154.8,108.6z"/>
<path class="st0" d="M223.2,222.8c-4-4.1-8.7-7.9-11.7-12.6c-5.2-8.1-8-17.4-10.6-26.7c-0.9-3.4-1.9-6.7-3-10.7
	c-6,5.1-9,10.9-9.9,18.1c-2-1.9-1.2-4.1-0.6-5.9c0.8-2.3,0-3.4-1.7-5c-4.8-4.6-9.3-9.5-13.8-14.3c-2.4-2.6-4.9-4.8-8.5-5.1
	c-1.3-0.1-2.6,0.7-3.9,1.1c0.4,1.1,0.8,2.2,1.4,3.2c6.2,8.9,12.7,17.6,18.5,26.7c8.6,13.5,19.2,24.7,34.6,30.3
	c3.6,1.4,7.4,2.4,11.1,3.5l0.4-0.4l0.1-0.3C224.8,224.1,224,223.5,223.2,222.8z M225.2,225.2l-3.4-1c-2.6-0.8-5.2-1.6-7.8-2.5
	c-13.5-5-24.5-14.6-34.5-30.2c-3.8-6-8-11.9-12.1-17.5c-2.1-3-4.3-6.1-6.5-9.1c-0.4-0.7-0.8-1.4-1-2.1c-0.1-0.3-0.2-0.5-0.3-0.8
	c0.3-0.1,0.7-0.2,1-0.4c0.8-0.4,1.7-0.6,2.5-0.6c3.7,0.2,6.2,2.7,8.4,5l1.1,1.2c4.1,4.4,8.2,8.9,12.6,13.1c1.7,1.6,2.3,2.6,1.6,4.8
	l0,0.2c-0.6,1.8-1.3,4,0.7,6l0.4,0.4l0.1-0.5c0.8-6.9,4.2-13.2,9.5-17.6l1,3.5c0.7,2.4,1.3,4.6,1.9,6.8c2.5,9.1,5.4,18.6,10.6,26.8
	c2.3,3.3,5.1,6.4,8.1,9.1c1.2,1.2,2.5,2.4,3.7,3.6c0.5,0.5,1.1,1,1.7,1.4l0.6,0.5L225.2,225.2z"/>
<path class="st0" d="M193,154.2c-0.6-2.2-2-3.8-4.3-4c-2.2-0.1-4.5,0-6.7,0.2l7.9,28.1c2.2-2.6,4.2-4.8,6.1-7.2
	c0.5-0.7,0.7-1.5,0.5-2.3C195.5,164,194.2,159.1,193,154.2z M195.8,171c-1.4,1.7-2.8,3.4-4.3,5.1l-1.5,1.7l-7.7-27.3l1.9-0.1
	c1.5-0.1,3-0.2,4.4-0.1c2,0.2,3.5,1.6,4,3.9c1.3,5,2.5,9.9,3.6,14.7C196.4,169.7,196.2,170.4,195.8,171z"/>
<path class="st0" d="M178.8,125.6l0.5-0.7c-0.6-0.2-1.2-0.4-1.9-0.6c-12.8-4.4-25.6-8.8-38.5-13.1c-1-0.2-1.9-0.2-2.9,0
	c0,1.1-0.3,2.4,0.2,3.1c1.4,2.1,3.2,4,5.1,5.7c4,3.2,8.5,6.2,13.7,6.3C163,126.5,170.9,125.9,178.8,125.6z M136.5,114.3
	c-0.3-0.6-0.3-1.3-0.2-1.9c0-0.3,0-0.6,0-0.8l0.7-0.1c0.6-0.1,1.2-0.1,1.8,0c9.9,3.3,20,6.8,29.7,10.1l8.8,3
	c0.4,0.1,0.9,0.3,1.3,0.4l0.2,0.1l-0.2,0.3c-2.3,0.1-4.6,0.2-6.9,0.3c-5.4,0.3-11.1,0.6-16.6,0.5s-9.8-3.3-13.6-6.2
	C139.6,118.2,137.9,116.4,136.5,114.3z"/>
<path class="st0" d="M196.1,134.9c-1.1-3.9-3.3-6.7-7.3-7.3c-3.2-0.3-6.4-0.3-9.6-0.1c-6.8,0.2-13.7,0.5-20.5,0.8
	c-7.6,0.3-15.2,0.5-22.8,0.9c-0.6,0-1.2,0.4-1.6,0.9c-0.1,0.6,0.1,1.3,0.6,1.7c1.7,1.1,3.4,2.5,5.4,3c4.9,1.2,9.8,2.1,14.8,3
	c4,0.8,8.1,2.3,12,1.9C176.7,138.5,186.2,136.5,196.1,134.9z M158.6,138.3c-1.1-0.3-2.3-0.6-3.5-0.8l-2.4-0.4
	c-4.1-0.8-8.3-1.5-12.3-2.6c-1.5-0.5-3-1.3-4.3-2.3l-1-0.7c-0.4-0.4-0.5-0.9-0.5-1.4c0.3-0.4,0.8-0.7,1.4-0.7
	c5.4-0.2,10.9-0.4,16.2-0.6l6.5-0.2l6.9-0.3c4.5-0.2,9.1-0.4,13.6-0.5h1.4c1.2,0,2.5-0.1,3.7-0.1c1.5,0,3,0.1,4.4,0.3
	c3.4,0.5,5.7,2.7,7,6.8c-2.8,0.5-5.5,1-8.2,1.5c-7,1.3-13.6,2.5-20.5,3.2C164.4,139.7,161.5,139,158.6,138.3z"/>
<path class="st0" d="M189.4,207.6c-5.6-6.2-10-13.6-14.9-20.4s-9.9-13.9-15-20.8c-1.3-1.8-3.1-3.6-1.6-5.9c1.6-2.6,4.5-2.2,7-1.7
	c3.7,0.7,6.4,3.1,8.8,6c4.1,4.8,8.4,9.4,12.6,14l1-0.6c-0.1-0.8-0.2-1.6-0.4-2.4c-2-7.8-4.1-15.5-6-23.3c-0.5-1.8-1.2-2.5-3.1-2.3
	c-4.7,0.5-9.5,0.8-14.2,1.3c-4.6,0.4-9,0-12.7-2.8c-1.2-0.9-2-2.4-2.1-3.9c0.1-0.9,2-2.1,3.2-2.5c2.4-0.7,4.9-0.9,7.4-1.8
	c-5.4-1-10.9-1.7-16.2-3.1c-3.3-1-6.4-2.5-9.4-4.4c-0.9-0.5-1.7-2.5-1.3-3.2c0.7-1.3,1.9-2.2,3.3-2.5c3.1-0.3,6.3-0.5,9.4-0.5
	l2.9-0.1c-2.7-1.7-5.1-2.8-6.9-4.4c-2.5-2.3-4.8-4.8-6.7-7.6c-0.7-1.5-0.5-3.2,0.4-4.6c0.9-0.9,3.2-1.1,4.6-0.7
	c4.8,1.4,9.5,3.2,14.3,4.8c0.7,0.2,1.3,0.3,2,0.4c-1.1-1.7-2-3.4-2.8-5.2c-0.3-1.1-0.1-2.9,0.6-3.5s2.6-0.5,3.5,0.1
	c8.9,5.9,17.8,12,26.6,18c1,0.7,2.2,1.1,3.4,1.3c5.2,0.6,8.9,3.2,10.8,8c0.5,1.7,1.9,3.1,3.6,3.7c4.3,1.6,6,5.6,8,9.3
	c5,9.3,9.7,18.8,14.6,28.2c3,5.7,5.9,11.5,9.2,17.1c1.4,2,3,3.9,4.9,5.5c1.8,1.8,4.5,2.4,6.9,1.4c0.4-0.1,0.9-0.1,1.3-0.1l0.1-0.2
	c-0.5-0.1-1,0-1.5,0.1c-2.3,0.9-4.9,0.3-6.6-1.4l-0.4-0.4c-1.7-1.5-3.2-3.2-4.4-5.1c-2.7-4.7-5.3-9.6-7.8-14.4l-1.4-2.7
	c-1.9-3.6-3.8-7.3-5.6-10.9c-2.9-5.7-5.9-11.5-9-17.2l-0.6-1.1c-1.7-3.4-3.5-6.8-7.5-8.3c-1.6-0.6-2.9-1.9-3.4-3.5
	c-1.9-4.9-5.6-7.6-11-8.2c-1.2-0.1-2.3-0.6-3.2-1.2c-3.6-2.4-7.1-4.8-10.6-7.2c-5.2-3.6-10.6-7.2-16-10.8c-0.9-0.6-3-0.8-3.8-0.1
	s-1,2.6-0.6,3.8c0.5,1.3,1.1,2.5,1.8,3.6c0.2,0.4,0.5,0.8,0.7,1.2h-0.2c-0.4-0.1-0.8-0.1-1.2-0.3c-1.5-0.5-2.9-1-4.3-1.5
	c-3.2-1.1-6.6-2.3-10-3.3c-1.5-0.4-3.9-0.2-4.9,0.8c-1,1.5-1.1,3.3-0.4,4.9c1.9,2.8,4.2,5.4,6.7,7.6c1.3,1.2,2.8,2.2,4.4,3
	c0.6,0.3,1.2,0.7,1.8,1.1h-0.5l-1.5,0.1c-0.9,0-1.8,0.1-2.7,0.1c-2.2,0-4.5,0.1-6.7,0.4c-1.5,0.3-2.7,1.3-3.5,2.6
	c-0.4,0.9,0.5,3,1.4,3.6c2.9,1.9,6.1,3.3,9.4,4.4c3.7,1,7.6,1.6,11.4,2.3l3.9,0.7c-1.2,0.3-2.3,0.6-3.5,0.8c-1,0.2-2,0.4-3,0.7
	c-1.2,0.3-3.4,1.5-3.4,2.7c0.1,1.6,0.9,3.1,2.2,4.1c3.3,2.5,7.4,3.4,12.9,2.9c1.7-0.2,3.5-0.3,5.2-0.4c2.9-0.2,6-0.5,9-0.8
	c1.7-0.2,2.4,0.3,2.9,2.1c1.3,5.1,2.6,10.2,3.9,15.2c0.7,2.7,1.4,5.4,2.1,8.1c0.1,0.5,0.2,1,0.2,1.6c0,0.2,0,0.4,0.1,0.6l-0.6,0.4
	l-3.6-4c-2.9-3.2-6-6.5-8.8-9.9c-2.3-2.7-5-5.3-8.9-6c-2.6-0.5-5.6-0.8-7.3,1.8c-1.4,2.1,0,3.9,1.2,5.5l0.5,0.6
	c3.3,4.5,6.6,9.1,9.8,13.6l5.2,7.2c1.5,2.1,3,4.3,4.4,6.4c3.2,4.9,6.7,9.7,10.5,14.1c8.9,9.8,20.4,16.3,34.3,19.2l0.2-0.2
	C210.3,224,198.6,217.9,189.4,207.6z"/>
<path class="st0" d="M209.5,202.3c-3.3-7.2-5.4-15.1-7.7-22.8c-2.5-8.3-4.5-16.8-6.7-25.2c-1.1-4-3.2-6.2-6.5-6.2
	c-5.3,0-10.6,0.3-16,0.5c-5,0.2-10.1,0.8-15.1,0.6c-2.9-0.1-5.9-1.1-7.5-4.5c1.2-0.4,2.3-0.7,3.5-1c6.7-1,13.4-1.9,20.1-3
	c6.5-1.1,12.9-2.6,19.4-3.4c5.4-0.7,9.9,1.2,12.5,6.4c2.9,5.7,6,11.3,8.9,17c4.6,8.9,9.1,17.8,13.8,26.6c2.2,4.3,4.5,8.6,8.7,11.5
	c2.8,2,5.4,2.4,8.2,0.8l0.2-0.4c-2.7,1.7-5.3,1.5-8.3-0.6c-4.1-2.9-6.4-7.2-8.6-11.4c-2.9-5.4-5.7-11-8.5-16.3
	c-1.8-3.4-3.6-6.9-5.3-10.3c-1.3-2.4-2.5-4.9-3.8-7.3c-1.7-3.2-3.4-6.4-5-9.6c-2.5-5-7-7.2-12.8-6.5c-4,0.5-7.9,1.3-11.8,2
	c-2.5,0.5-5.1,1-7.6,1.4c-4,0.7-8.1,1.2-12,1.8c-2.7,0.4-5.4,0.8-8,1.2c-0.8,0.1-1.5,0.3-2.3,0.6l-1.3,0.4l-0.3,0.1l0.1,0.3
	c1.4,3,3.9,4.5,7.7,4.6c3.4,0.1,6.7-0.1,10.1-0.3c1.6-0.1,3.4-0.2,5-0.3l2.7-0.1c4.4-0.2,8.8-0.4,13.3-0.4l0,0c3.1,0,5.2,2,6.2,6
	c0.8,3,1.6,6,2.3,8.9c1.4,5.4,2.8,10.9,4.4,16.3c0.3,1,0.6,2.1,0.9,3.2c1.9,6.6,3.9,13.4,6.8,19.6c4.2,9.1,10.1,16.2,17.7,21.1
	l0.2-0.2C219.4,218.1,213.3,210.9,209.5,202.3z"/>
<path class="st0" d="M214,221.9c-15.4-5.7-26-16.8-34.6-30.3c-5.8-9.1-12.4-17.8-18.5-26.7c-0.6-1-1-2.1-1.4-3.2
	c1.3-0.4,2.6-1.2,3.9-1.1c3.6,0.2,6.2,2.5,8.5,5.1c4.5,4.9,9,9.8,13.8,14.3c1.7,1.6,2.4,2.7,1.7,5c-0.6,1.8-1.4,3.9,0.6,5.9
	c0.9-7.1,3.9-12.9,9.9-18.1c1.1,4,2.1,7.3,3,10.7c2.6,9.3,5.4,18.6,10.6,26.7c3,4.8,7.7,8.5,11.7,12.6c0.8,0.7,1.6,1.3,2.4,1.9
	l-0.1,0.3l0.4-0.4l-0.1-0.1c-0.3-0.2-0.5-0.4-0.8-0.6c-0.6-0.4-1.1-0.8-1.6-1.3c-1.2-1.2-2.5-2.4-3.7-3.6c-3-2.7-5.7-5.7-8-9
	c-5.2-8.2-8.1-17.6-10.6-26.7c-0.6-2.2-1.2-4.4-1.9-6.8l-1.1-3.9l-0.1-0.4l-0.3,0.3c-5.8,5-8.9,10.6-9.9,17.7
	c-1.4-1.7-0.8-3.4-0.2-5l0.1-0.2c0.9-2.6-0.2-3.8-1.7-5.3c-4.4-4.2-8.6-8.7-12.6-13.1l-1.1-1.2c-2.2-2.4-4.9-4.9-8.7-5.2
	c-1,0-1.9,0.2-2.8,0.7c-0.4,0.2-0.8,0.3-1.2,0.4l-0.3,0.1l0.1,0.3c0.1,0.3,0.3,0.7,0.4,1c0.2,0.8,0.6,1.5,1,2.2
	c2.1,3.1,4.3,6.2,6.5,9.1c4,5.7,8.2,11.6,12,17.5c10,15.7,21.1,25.4,34.7,30.5c2.6,0.9,5.2,1.7,7.8,2.5l3.2,1l0.2-0.2
	C221.4,224.3,217.6,223.2,214,221.9z"/>
<path class="st0" d="M167.2,139.9c6.8-0.8,13.5-2,20.5-3.2c2.8-0.5,5.6-1,8.5-1.5h0.3l-0.1-0.3c-1.3-4.5-3.8-7-7.5-7.5
	c-2.7-0.3-5.5-0.4-8.2-0.2h-1.4c-4.5,0.1-9.1,0.3-13.6,0.5l-6.9,0.3l-6.5,0.2c-5.3,0.2-10.8,0.4-16.2,0.6c-0.7,0-1.4,0.4-1.8,1
	c-0.2,0.7,0.1,1.5,0.7,2l1,0.7c1.3,1,2.8,1.8,4.4,2.4c4.1,1,8.3,1.8,12.4,2.6l2.4,0.5c1.1,0.2,2.3,0.5,3.5,0.8
	c2.4,0.7,4.8,1.1,7.2,1.2C166.2,139.9,166.7,139.9,167.2,139.9z M155.1,137.7c-4.9-0.9-9.9-1.8-14.8-3c-1.9-0.5-3.6-1.9-5.4-3
	c-0.5-0.4-0.7-1.1-0.6-1.7c0.4-0.5,0.9-0.8,1.6-0.9c7.6-0.3,15.2-0.6,22.8-0.9c6.8-0.3,13.6-0.6,20.5-0.8c3.2-0.2,6.4-0.2,9.6,0.1
	c4,0.5,6.1,3.4,7.3,7.3c-9.9,1.7-19.4,3.7-29,4.8C163.2,140,159.1,138.5,155.1,137.7L155.1,137.7z"/>
<path class="st0" d="M240.9,229.7c1.5,0.4,3,0.7,4.5,0.9c1,0.2,2,0.4,3,0.6c0.4,0.1,0.8,0.3,1.1,0.5l0.4,0.2l-0.2,0.7
	c-0.7-0.1-1.4-0.1-2-0.2c-1.7-0.1-3.4-0.3-5-0.7c-1.8-0.5-3.5-1.2-5.3-1.8c-1.5-0.6-3.1-1.2-4.6-1.6c-1.6-0.4-3.3-0.8-5-1l-0.7-0.1
	l-0.2,0.2c2,0.3,3.9,0.6,5.9,1.2c3.4,1,6.5,2.5,9.9,3.4c2.4,0.5,4.8,0.8,7.3,1l0.3-1.1c-0.5-0.4-1.1-0.7-1.7-0.9
	c-2.5-0.5-5-0.8-7.5-1.5c-4-1.1-7.9-2.7-11.6-4.8l-0.2,0.2C232.9,226.9,236.8,228.6,240.9,229.7z"/>
<path class="st0" d="M157.2,126.7c4.9,0,9.8-0.3,14.6-0.5c2.4-0.1,4.7-0.2,7-0.3h0.1l0.8-1.1l-0.9-0.3c-0.4-0.1-0.9-0.2-1.3-0.4
	l-8.8-3c-9.7-3.3-19.8-6.7-29.7-10.1c-0.7-0.2-1.4-0.2-2.1-0.1c-0.3,0-0.6,0.1-0.9,0.1h-0.2v0.3c0,0.3,0,0.7,0,1
	c-0.1,0.8,0,1.6,0.3,2.3c1.5,2.1,3.2,4.1,5.2,5.7c3.8,3,8.4,6.3,13.9,6.4L157.2,126.7L157.2,126.7z M136.3,114.4
	c-0.5-0.7-0.2-2.1-0.2-3.1c1-0.2,1.9-0.2,2.9,0c12.8,4.3,25.7,8.7,38.5,13.1c0.6,0.2,1.2,0.4,1.9,0.6l-0.5,0.7
	c-7.9,0.3-15.8,0.9-23.6,0.8c-5.3-0.1-9.7-3.1-13.7-6.3C139.4,118.4,137.7,116.5,136.3,114.4L136.3,114.4z"/>
<path class="st0" d="M193.2,154.1c-0.6-2.5-2.2-4-4.5-4.2c-1.5-0.1-3-0.1-4.5,0.1c-0.7,0-1.5,0.1-2.2,0.1h-0.3l8,28.4l0.1,0.5
	l0.3-0.4l1.8-2.1c1.5-1.8,3-3.4,4.3-5.1c0.5-0.7,0.7-1.6,0.6-2.5C195.7,164,194.5,159.1,193.2,154.1z M196,171.2
	c-1.9,2.4-3.9,4.6-6.1,7.2l-7.9-28.1c2.2-0.2,4.5-0.3,6.7-0.2c2.3,0.2,3.7,1.8,4.3,4c1.2,4.9,2.5,9.8,3.6,14.7
	C196.7,169.7,196.5,170.5,196,171.2L196,171.2z"/>
<path class="st0" d="M189.6,207.5c-3.8-4.4-7.3-9.1-10.5-14c-1.4-2.1-2.9-4.3-4.4-6.4l-5.2-7.2c-3.2-4.5-6.5-9.1-9.8-13.6l-0.5-0.6
	c-1.2-1.6-2.3-3.1-1.1-4.9c0.8-1.3,2.3-2.1,3.9-1.9c1,0,1.9,0.1,2.8,0.3c3.8,0.7,6.4,3.3,8.6,5.9c2.9,3.4,5.9,6.7,8.8,9.9
	c1.3,1.4,2.5,2.8,3.8,4.1l0.1,0.2l1.3-0.8v-0.2c0-0.2-0.1-0.5-0.1-0.8c-0.1-0.6-0.1-1.1-0.3-1.6c-0.7-2.7-1.4-5.4-2.1-8.1
	c-1.3-5-2.6-10.1-3.9-15.2c-0.4-1.7-1.2-2.8-3.4-2.5c-3,0.3-6,0.6-8.9,0.8c-1.8,0.1-3.5,0.3-5.2,0.4c-5.4,0.5-9.4-0.4-12.6-2.8
	c-1.2-0.9-1.9-2.2-2-3.7c0-0.7,1.8-1.9,3.1-2.2c1-0.3,1.9-0.4,2.9-0.6c1.5-0.3,3.1-0.6,4.5-1.2l0.9-0.3l-0.9-0.2
	c-1.6-0.3-3.2-0.6-4.8-0.9c-3.8-0.6-7.6-1.3-11.3-2.3c-3.3-1-6.4-2.5-9.3-4.3c-0.9-0.7-1.3-1.8-1.2-2.9c0.6-1.2,1.8-2,3.1-2.3
	c2.2-0.3,4.4-0.4,6.6-0.4c0.9,0,1.8,0,2.7-0.1l1.6-0.1l2.2-0.1l-0.7-0.4c-0.9-0.6-1.7-1.1-2.5-1.5c-1.5-0.8-3-1.8-4.3-2.9
	c-2.5-2.2-4.7-4.8-6.6-7.5c-0.6-1.4-0.5-3,0.3-4.2c0.8-0.8,3-1,4.4-0.6c3.4,1,6.7,2.1,9.9,3.3c1.4,0.5,2.9,1,4.3,1.5
	c0.4,0.1,0.8,0.2,1.3,0.3l0.8,0.1l0.5,0.1l-0.3-0.5c-0.3-0.6-0.7-1.2-1-1.7c-0.7-1.1-1.3-2.3-1.8-3.5c-0.3-1.1-0.2-2.3,0.5-3.2
	c1-0.5,2.2-0.4,3.2,0.1c5.4,3.5,10.8,7.2,16,10.8c3.5,2.4,7.1,4.8,10.6,7.2c1,0.7,2.2,1.2,3.5,1.3c5.2,0.6,8.8,3.2,10.6,7.9
	c0.6,1.8,1.9,3.2,3.7,3.8c3.8,1.4,5.6,4.8,7.3,8.1l0.6,1.1c3,5.7,6,11.6,9,17.2c1.9,3.6,3.8,7.3,5.6,10.9l1.4,2.7
	c2.5,4.8,5,9.7,7.8,14.4c1.3,1.9,2.8,3.7,4.5,5.2l0.4,0.4c1.9,1.9,4.7,2.5,7.1,1.5c0.3-0.1,0.7-0.1,1.1-0.1l0.1-0.3
	c-0.4-0.1-0.9,0-1.3,0.1c-2.4,0.9-5.1,0.3-6.9-1.4c-1.9-1.6-3.5-3.4-4.9-5.5c-3.2-5.6-6.2-11.4-9.2-17.1
	c-4.9-9.4-9.6-18.8-14.6-28.2c-1.9-3.7-3.6-7.7-8-9.3c-1.7-0.6-3-2-3.6-3.7c-1.9-4.8-5.6-7.5-10.8-8c-1.2-0.2-2.4-0.6-3.4-1.3
	c-8.9-6-17.7-12-26.6-18c-0.9-0.6-2.8-0.7-3.5-0.1s-0.9,2.5-0.6,3.5c0.8,1.8,1.7,3.6,2.8,5.2c-0.7-0.1-1.3-0.2-2-0.4
	c-4.8-1.6-9.5-3.4-14.3-4.8c-1.4-0.4-3.8-0.2-4.6,0.7c-0.9,1.4-1,3.1-0.4,4.6c1.9,2.8,4.2,5.3,6.7,7.6c1.8,1.6,4.1,2.7,6.9,4.4
	l-2.9,0.1c-3.1,0-6.3,0.1-9.4,0.5c-1.4,0.3-2.6,1.2-3.3,2.5c-0.4,0.7,0.5,2.7,1.3,3.2c2.9,1.8,6.1,3.3,9.4,4.4
	c5.3,1.4,10.8,2.1,16.2,3.1c-2.5,1-5,1.1-7.4,1.8c-1.3,0.4-3.2,1.5-3.2,2.4c0.1,1.5,0.9,3,2.1,3.9c3.8,2.8,8.2,3.2,12.7,2.8
	c4.7-0.4,9.5-0.7,14.2-1.3c2-0.2,2.7,0.5,3.1,2.3c2,7.8,4,15.5,6,23.3c0.2,0.8,0.3,1.6,0.4,2.4l-1,0.6c-4.2-4.7-8.5-9.2-12.6-14
	c-2.4-2.8-5-5.2-8.8-6c-2.5-0.5-5.4-0.9-7,1.7c-1.5,2.3,0.3,4,1.6,5.9c5,6.9,10,13.9,15,20.8c5,7,9.3,14.2,14.9,20.4
	c9.2,10.2,20.9,16.4,34.4,19.1l0.2-0.2C210,223.7,198.4,217.3,189.6,207.5z"/>
<path class="st0" d="M169.6,120c2.4,0.6,4.8,1.5,7.1,2.5l0.3,0.1l0.4-1.2l-23-15.2v0.4c0,0.4-0.1,0.7-0.1,1c-0.1,0.4-0.1,0.8,0,1.2
	l0.7,1.1c0.8,1.5,1.8,2.9,3,4.2C161.4,117.5,165.6,118.8,169.6,120z M154.6,108.7c-0.2-0.3,0-1,0.1-2l22.4,14.8l-0.3,0.7
	c-6-3.1-13.4-3-18.5-8.2C156.9,112.4,155.6,110.6,154.6,108.7L154.6,108.7z"/>
<path class="st0" d="M24.3,52.1c-1.6-0.5-3.1-1.1-4.6-1.6c-1.7-0.7-3.5-1.3-5.3-1.8c-1.6-0.4-3.3-0.6-5-0.7
	c-0.7-0.1-1.4-0.1-2.1-0.2l-0.2,0.7l0.4,0.2c0.3,0.2,0.7,0.4,1.1,0.5c1,0.2,2,0.4,3,0.6c1.5,0.3,3,0.5,4.5,0.9
	c3.3,0.9,6.6,2.1,9.6,3.7l1.2-1.6C26.1,52.5,25.2,52.3,24.3,52.1z"/>
<path class="st0" d="M47.7,77.9c2.9,6.3,4.9,13.1,6.8,19.6l0.9,3.1c1.6,5.4,3,10.9,4.4,16.3c0.8,2.9,1.5,5.9,2.3,8.9
	c1.1,4,3.2,6,6.2,6l0,0c4.4,0,8.9-0.2,13.3-0.4l2.7-0.1c1.7-0.1,3.4-0.2,5-0.3c3.3-0.3,6.7-0.4,10.1-0.3c3.8,0.1,6.4,1.7,7.7,4.6
	l0.1,0.3l-0.3,0.1l-1.3,0.4c-0.7,0.3-1.5,0.5-2.3,0.6c-2.7,0.4-5.4,0.8-8,1.2c-4,0.6-8,1.2-12,1.8c-2.6,0.4-5.1,0.9-7.6,1.4
	c-3.9,0.8-7.8,1.5-11.8,2c-5.8,0.7-10.2-1.5-12.8-6.5c-1.6-3.2-3.4-6.4-5-9.6c-1.3-2.5-2.6-4.9-3.9-7.4c-1.8-3.4-3.6-6.9-5.3-10.4
	c-2.8-5.4-5.6-10.9-8.4-16.3c-2.2-4.2-4.5-8.5-8.6-11.4c-2.2-1.5-4.2-2-6.1-1.6l-0.6,1.4c0.5-0.1,1.1-0.1,1.6-0.1
	c1.7,0,3.4,0.7,4.6,1.9l0.4,0.3c1.8,1.5,3.3,3.3,4.5,5.2c2.8,4.8,5.3,9.7,7.8,14.5l1.4,2.6c1.9,3.7,3.8,7.3,5.7,11
	c2.9,5.6,5.9,11.5,8.9,17.2l0.6,1.1c1.7,3.3,3.4,6.7,7.3,8.1c1.8,0.6,3.1,2,3.7,3.8c1.8,4.7,5.4,7.3,10.6,7.9
	c1.2,0.2,2.4,0.6,3.5,1.3c3.5,2.4,7.1,4.8,10.6,7.2c5.2,3.6,10.7,7.2,16,10.8c0.8,0.5,2.6,0.6,3.2,0.1c0.6-1,0.8-2.1,0.5-3.2
	c-0.5-1.2-1-2.4-1.8-3.5c-0.3-0.5-0.7-1.1-1-1.7l-0.3-0.6l0.5,0.1l0.8,0.1c0.4,0.1,0.9,0.2,1.3,0.3c1.5,0.5,2.9,1,4.3,1.5
	c3.2,1.1,6.6,2.3,9.9,3.3c1.3,0.4,3.6,0.2,4.4-0.6c0.8-1.3,0.9-2.9,0.3-4.2c-1.9-2.8-4.1-5.3-6.6-7.5c-1.3-1.1-2.8-2.1-4.3-2.9
	c-0.8-0.5-1.6-1-2.5-1.5l-0.7-0.4l2.2-0.1l1.6-0.1c0.9,0,1.8,0,2.7-0.1c2.2,0,4.4-0.1,6.6-0.4c1.3-0.3,2.4-1.2,3.1-2.3
	c0.1-1.1-0.4-2.2-1.2-2.9c-2.9-1.8-6-3.3-9.3-4.3c-3.7-1-7.6-1.6-11.3-2.3c-1.6-0.3-3.2-0.6-4.9-0.9l-0.9-0.2l0.9-0.3
	c1.5-0.5,3-0.9,4.5-1.2c1-0.2,2-0.4,2.9-0.6c1.3-0.4,3-1.5,3.1-2.2c-0.1-1.5-0.8-2.8-2-3.7c-3.2-2.4-7.2-3.2-12.6-2.8
	c-1.7,0.2-3.5,0.3-5.2,0.5c-3,0.2-6,0.5-9,0.8c-2.2,0.3-3-0.8-3.4-2.5c-1.3-5-2.6-10.1-3.9-15c-0.7-2.7-1.4-5.5-2.2-8.2
	c-0.1-0.5-0.2-1.1-0.3-1.7c0-0.2-0.1-0.5-0.1-0.7V102l1.3-0.8l0.2,0.2c1.2,1.4,2.5,2.8,3.8,4.1c2.9,3.2,6,6.5,8.8,9.9
	c2.2,2.6,4.8,5.1,8.6,5.9c2.6,0.5,5.2,0.8,6.8-1.6c1.2-1.9,0-3.3-1.1-4.9l-0.5-0.6c-3.3-4.5-6.6-9.1-9.8-13.6l-5.1-7.2
	c-1.5-2.1-3-4.3-4.4-6.4c-3.2-4.9-6.7-9.6-10.5-14.1c-9.2-10.2-21.3-16.7-36-19.4l-1.6-0.3c-0.6,0.8-1.2,1.6-1.8,2.4
	C36.6,60.5,43.2,68,47.7,77.9z M102,170.3l0.7,1.1c0.2,0.4,0.2,0.8,0,1.2c0,0.3-0.1,0.6-0.1,1v0.4l-23-15.2l0.4-1.2l0.3,0.1
	c2.3,1.1,4.6,1.9,7.1,2.5c4.1,1.2,8.3,2.4,11.5,5.7C100.1,167.4,101.1,168.8,102,170.3z M115.8,160c2,1.7,3.7,3.6,5.2,5.7
	c0.4,0.7,0.5,1.5,0.3,2.3c0,0.3,0,0.7,0,1v0.3H121c-0.3,0-0.6,0-0.9,0.1s-0.7,0.1-1,0.1c-0.3,0-0.7,0-1-0.1
	c-9.9-3.3-19.9-6.7-29.6-10l-8.8-3c-0.4-0.1-0.9-0.3-1.3-0.4l-0.9-0.3l0.8-1.1h0.1c2.4-0.1,4.7-0.2,7-0.3c5.5-0.3,11.1-0.6,16.6-0.5
	C107.2,153.7,111.7,156.8,115.8,160z M98.5,141.5c1.1,0.3,2.3,0.6,3.5,0.8l2.4,0.5c4.1,0.8,8.3,1.5,12.4,2.6
	c1.6,0.5,3.1,1.3,4.4,2.4l1,0.7c0.6,0.5,0.8,1.3,0.7,2c-0.4,0.6-1.1,1-1.8,1c-5.5,0.2-11.1,0.4-16.5,0.6l-6.2,0.2l-6.9,0.3
	c-4.5,0.2-9.1,0.4-13.6,0.5h-1.4c-1.2,0-2.5,0.1-3.7,0.1c-1.5,0-3-0.1-4.5-0.3c-3.7-0.5-6.2-2.9-7.5-7.5l-0.1-0.3h0.3
	c2.9-0.5,5.7-1,8.5-1.5c7-1.3,13.7-2.5,20.5-3.2C92.7,140.1,95.6,140.8,98.5,141.5L98.5,141.5z M75.4,130.2h-0.3
	c-0.8,0-1.5,0.1-2.2,0.1c-1,0.1-2,0.1-2.9,0.1c-0.5,0-1.1,0-1.6-0.1c-2.2-0.2-3.8-1.7-4.5-4.2c-1.3-4.9-2.5-9.8-3.6-14.7
	c-0.1-0.9,0.1-1.8,0.6-2.5c1.4-1.7,2.8-3.4,4.4-5.1l1.8-2l0.3-0.4l0.1,0.5L75.4,130.2z M31.5,54.5l0.2,0.1c1.2,0.4,2.4,0.7,3.6,1.1
	c2.6,0.8,5.2,1.6,7.8,2.5c13.7,5.1,24.7,14.7,34.7,30.4c3.8,6,8,11.8,12.1,17.5c2.1,3,4.3,6.1,6.5,9.1c0.4,0.7,0.8,1.4,1,2.2
	c0.1,0.4,0.2,0.7,0.4,1l0.1,0.3l-0.3,0.1c-0.4,0.1-0.8,0.3-1.2,0.4c-0.8,0.4-1.7,0.6-2.6,0.7h-0.2c-3.9-0.2-6.5-2.8-8.7-5.2
	l-1.1-1.2c-4-4.4-8.2-8.9-12.6-13.1c-1.6-1.5-2.6-2.7-1.7-5.3l0.1-0.2c0.5-1.6,1.1-3.4-0.2-5c-1,7.1-4.2,12.7-9.9,17.7l-0.3,0.3
	l-1.1-4c-0.7-2.5-1.4-4.7-2-7c-2.5-9-5.4-18.5-10.6-26.7c-2.3-3.3-5-6.3-8-9c-1.2-1.2-2.5-2.4-3.7-3.6c-0.5-0.5-1-0.9-1.6-1.3
	c-0.3-0.2-0.6-0.4-0.8-0.6l-0.1-0.1L31.5,54.5z"/>
<path class="st0" d="M80.2,158l-0.3,0.7l22.4,14.8c0.1-1,0.3-1.7,0.1-2c-1.1-1.9-2.3-3.7-3.7-5.3C93.6,161,86.2,161.1,80.2,158z
	 M102.2,171.7c0.1,0.3,0.1,0.6,0,0.9c0,0.2,0,0.4-0.1,0.6l-21.9-14.5l0.1-0.2c2.2,1,4.5,1.8,6.9,2.4c4,1.2,8.1,2.4,11.3,5.6
	c1.1,1.3,2.2,2.6,3,4.1L102.2,171.7z"/>
<path class="st0" d="M78.2,154.7l-0.5,0.7c0.6,0.2,1.2,0.4,1.9,0.6c12.8,4.4,25.6,8.8,38.5,13.1c1,0.2,1.9,0.2,2.9,0
	c0-1.1,0.3-2.4-0.2-3.1c-1.4-2.1-3.2-4-5.1-5.7c-4-3.2-8.5-6.2-13.7-6.3C94,153.8,86.1,154.4,78.2,154.7z M120.5,166
	c0.3,0.6,0.3,1.3,0.2,1.9c0,0.3,0,0.6,0,0.8l-0.7,0.1c-0.6,0.1-1.2,0.1-1.8,0c-9.9-3.3-19.9-6.7-29.6-10l-8.8-3
	c-0.4-0.1-0.9-0.3-1.3-0.4l-0.2-0.1l0.2-0.3c2.3-0.1,4.6-0.2,6.9-0.3c5.4-0.3,11.1-0.6,16.6-0.5s9.8,3.3,13.6,6.2
	C117.4,162.1,119.1,164,120.5,166L120.5,166z"/>
<path class="st0" d="M60.9,145.4c1.1,3.9,3.3,6.7,7.3,7.3c3.2,0.3,6.4,0.3,9.6,0.1c6.8-0.2,13.7-0.5,20.5-0.8
	c7.6-0.3,15.2-0.5,22.8-0.9c0.6,0,1.2-0.4,1.6-0.9c0.1-0.6-0.1-1.3-0.6-1.7c-1.7-1.1-3.4-2.5-5.4-3c-4.9-1.2-9.8-2.1-14.8-3
	c-4-0.8-8.1-2.3-12-1.9C80.3,141.8,70.8,143.8,60.9,145.4z M98.4,142c1.1,0.3,2.3,0.6,3.5,0.8l2.4,0.5c4.1,0.8,8.3,1.5,12.4,2.6
	c1.5,0.5,3,1.3,4.2,2.3l1,0.7c0.4,0.4,0.5,0.9,0.5,1.4c-0.3,0.4-0.8,0.7-1.4,0.7c-5.5,0.2-11.1,0.4-16.5,0.6l-6.2,0.2l-6.9,0.3
	c-4.5,0.2-9.1,0.4-13.6,0.5h-1.4c-2.7,0.2-5.4,0.1-8.1-0.2c-3.4-0.5-5.7-2.7-7-6.8c2.8-0.5,5.5-1,8.2-1.5c7-1.3,13.6-2.5,20.5-3.2
	C92.6,140.6,95.5,141.4,98.4,142L98.4,142z"/>
<path class="st0" d="M45.6,70.2c5.2,8.1,8,17.4,10.6,26.7c0.9,3.4,1.9,6.7,3,10.7c6-5.1,9-10.9,9.9-18.1c2,1.9,1.2,4.1,0.6,5.9
	c-0.8,2.3,0,3.4,1.7,5c4.8,4.6,9.3,9.5,13.8,14.3c2.4,2.6,4.9,4.8,8.5,5.1c1.3,0.1,2.6-0.7,3.9-1.1c-0.4-1.1-0.8-2.2-1.4-3.2
	c-6.2-8.9-12.7-17.6-18.5-26.7C69,75.2,58.4,64.1,43,58.4c-3.7-1.4-7.6-2.4-11.4-3.6l-0.3,0.8c0.9,0.6,1.7,1.2,2.4,1.9
	C37.8,61.7,42.5,65.4,45.6,70.2z M31.7,55.5l0.1-0.4l3.4,1c2.6,0.8,5.2,1.6,7.7,2.5c13.6,5,24.5,14.6,34.5,30.2
	c3.8,6,8,11.9,12.1,17.6c2.1,3,4.3,6.1,6.5,9.1c0.4,0.7,0.8,1.4,1,2.1c0.1,0.3,0.2,0.5,0.3,0.8c-0.3,0.1-0.7,0.2-1,0.4
	c-0.8,0.4-1.7,0.6-2.5,0.6c-3.7-0.2-6.2-2.7-8.4-5l-1.2-1.2c-4.1-4.4-8.2-8.9-12.6-13.1c-1.7-1.6-2.3-2.6-1.6-4.8l0.1-0.2
	c0.6-1.8,1.3-4-0.7-6l-0.4-0.4l-0.1,0.5c-0.8,6.9-4.2,13.2-9.5,17.6l-0.9-3.2c-0.7-2.5-1.4-4.7-2-7C53.9,87.7,51,78.2,45.7,70
	c-2.3-3.3-5.1-6.4-8.1-9.1c-1.2-1.2-2.5-2.4-3.6-3.6c-0.5-0.5-1.1-1-1.7-1.3L31.7,55.5z"/>
<path class="st0" d="M20,81.4c4.1,2.9,6.4,7.2,8.7,11.5c4.6,8.9,9.2,17.8,13.8,26.6c2.9,5.7,6,11.3,8.9,17c2.7,5.2,7.2,7,12.5,6.4
	c6.5-0.8,12.9-2.4,19.4-3.4c6.7-1.1,13.4-2,20.1-3c1.2-0.3,2.4-0.6,3.5-1c-1.6-3.4-4.6-4.4-7.5-4.5c-5-0.2-10,0.4-15.1,0.6
	c-5.3,0.2-10.6,0.5-15.9,0.5c-3.3,0-5.4-2.2-6.5-6.2c-2.2-8.4-4.2-16.9-6.7-25.2c-2.3-7.7-4.4-15.5-7.7-22.8
	c-4.4-9.6-10.9-17.2-19.6-22.2L27.8,56c8.4,4.9,15,12.3,19.5,22.1c2.9,6.2,4.9,13,6.8,19.6c0.3,1.1,0.6,2.1,0.9,3.2
	c1.6,5.4,3,10.9,4.4,16.3c0.8,2.9,1.5,5.9,2.3,8.9c1.1,4.2,3.4,6.4,6.8,6.4l0,0c4.4,0,8.9-0.2,13.3-0.4l2.7-0.1
	c1.7-0.1,3.4-0.2,5-0.3c3.3-0.3,6.7-0.4,10-0.3c3.5,0.1,5.8,1.5,7.1,4.1l-1,0.3c-0.7,0.2-1.5,0.4-2.2,0.6c-2.7,0.4-5.3,0.8-8,1.2
	c-4,0.6-8,1.2-12,1.8c-2.6,0.4-5.2,0.9-7.7,1.4c-3.8,0.8-7.8,1.5-11.8,2c-5.6,0.7-9.8-1.5-12.3-6.2c-1.6-3.2-3.4-6.5-5-9.6
	c-1.3-2.5-2.6-4.9-3.9-7.4c-1.8-3.4-3.6-6.9-5.3-10.4c-2.8-5.4-5.6-10.9-8.4-16.3c-2.2-4.2-4.6-8.7-8.8-11.6c-1.7-1.4-4-2-6.2-1.7
	l-0.1,0.3C15.9,79.4,17.9,80,20,81.4z"/>
<path class="st0" d="M16.1,50.8c-2.4-0.7-5-1-7.5-1.5c-0.6-0.2-1.2-0.5-1.7-0.9l0.3-1.1c2.5,0.2,4.9,0.5,7.3,1
	c3.4,0.9,6.6,2.4,9.9,3.4c0.9,0.3,1.9,0.5,2.9,0.7l0.2-0.2c-1-0.2-2-0.4-3-0.7c-1.6-0.5-3.1-1.1-4.6-1.6c-1.7-0.7-3.5-1.3-5.3-1.8
	c-1.7-0.4-3.4-0.7-5.1-0.8c-0.8-0.1-1.5-0.1-2.3-0.2H6.9l-0.4,1.5l0.2,0.1c0.2,0.1,0.4,0.2,0.5,0.3c0.4,0.3,0.8,0.5,1.3,0.6
	c1,0.2,2,0.4,3,0.6c1.5,0.3,3,0.5,4.5,0.9c3.3,0.9,6.5,2.1,9.5,3.7l0.1-0.2C22.6,53,19.4,51.8,16.1,50.8z"/>
<path class="st0" d="M19,83.6l0.4,0.3c1.7,1.5,3.2,3.2,4.4,5.1c2.7,4.8,5.3,9.7,7.8,14.5l1.4,2.6c1.9,3.7,3.8,7.3,5.7,11
	c2.9,5.6,5.9,11.5,8.9,17.2l0.6,1.1c1.7,3.4,3.5,6.8,7.5,8.3c1.6,0.6,2.9,1.9,3.4,3.5c1.9,4.9,5.6,7.6,11,8.2
	c1.2,0.1,2.3,0.6,3.2,1.2c3.5,2.4,7.1,4.8,10.6,7.2c5.2,3.6,10.7,7.2,16,10.8c0.7,0.4,1.4,0.5,2.1,0.5c0.6,0,1.2-0.1,1.6-0.5
	c0.8-0.7,1-2.6,0.6-3.8c-0.5-1.3-1.1-2.5-1.8-3.6c-0.2-0.4-0.5-0.8-0.7-1.2h0.2c0.4,0.1,0.8,0.1,1.2,0.3c1.5,0.5,2.9,1,4.3,1.5
	c3.2,1.1,6.6,2.3,10,3.3c1.5,0.4,3.9,0.2,4.9-0.8c1-1.5,1.1-3.3,0.4-4.9c-1.9-2.8-4.2-5.4-6.7-7.6c-1.3-1.2-2.8-2.2-4.4-3
	c-0.6-0.4-1.2-0.7-1.8-1.1h0.5l1.6-0.1c0.9,0,1.8-0.1,2.7-0.1c2.2,0,4.5-0.1,6.7-0.4c1.5-0.3,2.7-1.3,3.5-2.6c0.4-0.9-0.5-3-1.5-3.6
	c-2.9-1.9-6.1-3.3-9.4-4.4c-3.7-1-7.6-1.6-11.4-2.3l-3.9-0.7c1.2-0.3,2.3-0.6,3.5-0.8c1-0.2,2-0.4,3-0.7c1.2-0.3,3.4-1.5,3.4-2.7
	c-0.1-1.6-0.9-3.1-2.2-4.1c-3.3-2.5-7.4-3.4-12.9-2.9c-1.7,0.2-3.5,0.3-5.2,0.5c-3,0.2-6,0.5-9,0.8c-1.7,0.2-2.4-0.3-2.9-2.1
	c-1.3-5-2.6-10.1-3.9-15c-0.7-2.7-1.4-5.5-2.2-8.2c-0.1-0.5-0.2-1.1-0.3-1.6c0-0.2,0-0.4-0.1-0.6l0.6-0.4c1.2,1.3,2.4,2.7,3.6,4
	c2.9,3.2,6,6.5,8.8,9.9c2.3,2.7,5,5.3,8.9,6c2.6,0.5,5.6,0.8,7.3-1.8c1.4-2.1,0-3.9-1.2-5.5l-0.5-0.6c-3.3-4.5-6.6-9.1-9.8-13.6
	L82.8,93c-1.5-2.1-3-4.3-4.4-6.4c-3.2-4.9-6.8-9.7-10.6-14.1c-9.3-10.3-21.5-16.9-36.3-19.6l-1.3-0.2l-0.2,0.2l1.4,0.2
	C45.6,55.7,58,62,67.6,72.7c5.6,6.2,10,13.6,14.9,20.4s9.9,13.9,15,20.8c1.3,1.8,3.1,3.6,1.6,5.9c-1.6,2.6-4.5,2.2-7,1.7
	c-3.7-0.7-6.4-3.1-8.8-6c-4.1-4.8-8.4-9.4-12.6-14l-1,0.6c0.1,0.8,0.2,1.6,0.4,2.4c2,7.8,4.1,15.5,6,23.3c0.5,1.8,1.2,2.5,3.1,2.3
	c4.7-0.5,9.5-0.8,14.2-1.3c4.6-0.4,9,0,12.7,2.8c1.2,0.9,2,2.4,2.1,3.9c-0.1,0.9-2,2.1-3.2,2.5c-2.4,0.7-4.9,0.9-7.4,1.8
	c5.4,1,10.9,1.7,16.2,3.1c3.3,1,6.4,2.5,9.4,4.4c0.9,0.5,1.7,2.5,1.3,3.2c-0.7,1.3-1.9,2.2-3.3,2.5c-3.1,0.3-6.3,0.5-9.4,0.5
	l-2.9,0.1c2.7,1.7,5.1,2.8,6.9,4.5c2.5,2.3,4.8,4.8,6.7,7.6c0.7,1.5,0.5,3.2-0.4,4.6c-0.9,0.9-3.2,1.1-4.6,0.7
	c-4.8-1.4-9.5-3.2-14.3-4.8c-0.7-0.2-1.3-0.3-2-0.4c1.1,1.7,2,3.4,2.8,5.2c0.3,1.1,0.1,2.9-0.6,3.5c-0.7,0.6-2.6,0.5-3.5-0.1
	c-8.9-5.9-17.8-12-26.6-18c-1-0.7-2.2-1.1-3.4-1.3c-5.2-0.6-8.9-3.2-10.8-8c-0.5-1.7-1.9-3.1-3.6-3.7c-4.3-1.6-6-5.6-8-9.3
	c-4.9-9.3-9.7-18.8-14.6-28.2c-3-5.7-5.9-11.5-9.2-17.1c-1.4-2-3-3.9-4.9-5.5c-1.6-1.6-3.9-2.2-6.1-1.6L12.9,82
	C15,81.3,17.4,81.9,19,83.6z"/>
<path class="st0" d="M61,109.1c-0.5,0.7-0.7,1.5-0.6,2.3c1.1,4.9,2.4,9.8,3.6,14.7c0.6,2.2,2,3.8,4.3,4.1c2.2,0.1,4.5,0,6.7-0.2
	l-7.9-28.1C64.9,104.5,62.9,106.7,61,109.1z M72.8,129.9c-1.5,0.1-3,0.2-4.4,0.1c-2-0.2-3.4-1.6-4-3.9c-1.3-4.9-2.5-9.8-3.6-14.7
	c-0.1-0.7,0.1-1.5,0.5-2.1c1.4-1.7,2.8-3.4,4.3-5.1l1.5-1.7l7.7,27.3C74,129.8,73.4,129.8,72.8,129.9z"/>
<path class="st0" d="M19.2,83.4c1.9,1.6,3.5,3.4,4.9,5.5c3.2,5.6,6.2,11.4,9.2,17.1c4.9,9.4,9.6,18.8,14.6,28.2
	c1.9,3.7,3.6,7.7,8,9.3c1.7,0.6,3,2,3.6,3.7c1.9,4.8,5.6,7.5,10.8,8c1.2,0.2,2.4,0.6,3.4,1.3c8.9,6,17.7,12,26.6,18
	c0.9,0.6,2.8,0.7,3.5,0.1s0.9-2.5,0.6-3.5c-0.8-1.8-1.7-3.6-2.8-5.2c0.7,0.1,1.3,0.2,2,0.4c4.8,1.6,9.5,3.4,14.3,4.8
	c1.4,0.4,3.8,0.2,4.6-0.7c0.9-1.4,1-3.1,0.4-4.6c-1.9-2.8-4.2-5.3-6.7-7.6c-1.8-1.6-4.1-2.7-6.9-4.4l2.9-0.1c3.1,0,6.3-0.1,9.4-0.5
	c1.4-0.3,2.6-1.2,3.3-2.5c0.4-0.7-0.5-2.7-1.3-3.2c-2.9-1.8-6.1-3.3-9.4-4.4c-5.3-1.4-10.8-2.1-16.2-3.1c2.5-1,5-1.1,7.4-1.8
	c1.3-0.4,3.2-1.5,3.2-2.4c-0.1-1.5-0.9-3-2.1-3.9c-3.8-2.8-8.2-3.2-12.7-2.8c-4.7,0.4-9.5,0.7-14.2,1.3c-2,0.2-2.7-0.5-3.1-2.3
	c-2-7.8-4-15.5-6-23.3c-0.2-0.8-0.3-1.6-0.4-2.4l1-0.6c4.2,4.7,8.5,9.2,12.6,14c2.4,2.8,5,5.2,8.8,6c2.5,0.5,5.4,0.9,7-1.7
	c1.5-2.3-0.3-4-1.6-5.9c-5-6.9-10-13.9-15-20.8s-9.3-14.2-14.9-20.4c-9.6-10.7-22-16.9-36.1-19.5L30.1,53l-0.2,0.2l1.6,0.3
	c14.7,2.7,26.8,9.2,36,19.4c3.8,4.4,7.3,9.1,10.5,14c1.4,2.1,2.9,4.3,4.4,6.4l5.2,7.2c3.2,4.5,6.5,9.1,9.8,13.6l0.5,0.6
	c1.2,1.6,2.3,3.1,1.1,4.9c-1.5,2.4-4.2,2.1-6.8,1.6c-3.8-0.7-6.4-3.3-8.6-5.9c-2.9-3.4-5.9-6.7-8.8-9.9c-1.3-1.4-2.5-2.8-3.8-4.1
	l-0.1-0.2l-1.3,0.8v0.2c0,0.2,0.1,0.5,0.1,0.7c0.1,0.6,0.1,1.1,0.3,1.7c0.7,2.8,1.4,5.5,2.2,8.2c1.3,4.9,2.6,10,3.9,15
	c0.4,1.7,1.2,2.7,3.4,2.5c3-0.3,6-0.6,9-0.8c1.7-0.1,3.5-0.3,5.2-0.5c5.4-0.5,9.4,0.4,12.6,2.8c1.2,0.9,1.9,2.2,2,3.7
	c0,0.7-1.8,1.9-3.1,2.2c-1,0.3-1.9,0.5-2.9,0.6c-1.5,0.3-3.1,0.6-4.5,1.2l-0.9,0.3l0.9,0.2c1.6,0.3,3.2,0.6,4.9,0.9
	c3.8,0.6,7.6,1.3,11.3,2.3c3.3,1,6.4,2.5,9.3,4.3c0.9,0.7,1.3,1.8,1.2,2.9c-0.6,1.2-1.8,2-3.1,2.3c-2.2,0.3-4.4,0.4-6.6,0.4
	c-0.9,0-1.8,0-2.7,0.1l-1.6,0.1l-2.2,0.1l0.7,0.4c0.9,0.6,1.7,1.1,2.5,1.5c1.5,0.8,3,1.8,4.3,2.9c2.5,2.2,4.7,4.8,6.6,7.5
	c0.6,1.4,0.5,3-0.3,4.2c-0.8,0.8-3,1-4.4,0.6c-3.4-1-6.7-2.1-9.9-3.3c-1.5-0.5-2.9-1-4.3-1.5c-0.4-0.1-0.8-0.2-1.3-0.3l-0.8-0.1
	l-0.7-0.1l0.3,0.5c0.3,0.6,0.7,1.2,1,1.7c0.7,1.1,1.3,2.3,1.8,3.5c0.3,1.1,0.2,2.3-0.5,3.2c-0.5,0.5-2.4,0.4-3.2-0.1
	c-5.4-3.5-10.8-7.2-16-10.8c-3.5-2.4-7.1-4.8-10.6-7.2c-1-0.7-2.2-1.1-3.5-1.3c-5.2-0.6-8.8-3.2-10.6-7.9c-0.6-1.8-2-3.2-3.8-3.8
	c-3.8-1.4-5.6-4.8-7.3-8.1L48,134c-3-5.7-6-11.5-8.9-17.2c-1.9-3.7-3.8-7.3-5.7-11l-1.4-2.6c-2.5-4.8-5.1-9.8-7.8-14.5
	c-1.3-1.9-2.8-3.7-4.5-5.2l-0.4-0.3c-1.2-1.2-2.8-1.9-4.5-1.9c-0.5,0-1.1,0.1-1.6,0.2l-0.1,0.3C15.3,81.2,17.6,81.8,19.2,83.4z"/>
<path class="st0" d="M19.9,81.6c4.1,2.9,6.4,7.2,8.6,11.4c2.8,5.4,5.7,10.9,8.4,16.3c1.8,3.5,3.6,6.9,5.3,10.4
	c1.3,2.5,2.6,4.9,3.9,7.4c1.6,3.1,3.4,6.4,5,9.6c2.6,5,7,7.2,12.8,6.5c4-0.5,7.9-1.3,11.8-2c2.5-0.5,5.1-1,7.6-1.4
	c4-0.7,8.1-1.2,12-1.8c2.7-0.4,5.4-0.8,8-1.2c0.8-0.1,1.5-0.3,2.3-0.6l1.3-0.4l0.3-0.1l-0.1-0.3c-1.4-3-3.9-4.5-7.7-4.6
	c-3.4-0.1-6.7,0.1-10.1,0.3c-1.6,0.1-3.4,0.2-5,0.3l-2.7,0.1c-4.4,0.2-8.8,0.4-13.3,0.4l0,0c-3.1,0-5.2-2-6.2-6
	c-0.8-3-1.6-6-2.3-8.9c-1.4-5.4-2.8-10.9-4.4-16.3l-0.9-3.1c-1.9-6.6-3.9-13.4-6.8-19.6C43.2,68,36.6,60.5,28.1,55.6l-0.2,0.2
	c8.6,5,15.1,12.6,19.6,22.2c3.3,7.2,5.4,15.1,7.7,22.8c2.5,8.3,4.4,16.8,6.7,25.2c1.1,4,3.2,6.2,6.5,6.2c5.3,0,10.6-0.3,15.9-0.5
	c5-0.2,10.1-0.8,15.1-0.6c2.9,0.1,5.9,1.1,7.5,4.5c-1.2,0.4-2.3,0.7-3.5,1c-6.7,1-13.4,1.9-20.1,3c-6.5,1.1-12.9,2.6-19.4,3.4
	c-5.4,0.7-9.9-1.2-12.5-6.4c-2.9-5.7-5.9-11.3-8.9-17c-4.6-8.9-9.1-17.8-13.8-26.6c-2.2-4.3-4.5-8.6-8.7-11.5
	c-2.1-1.5-4.1-2.1-6.1-1.6l-0.1,0.3C15.7,79.6,17.7,80.1,19.9,81.6z"/>
<path class="st0" d="M89.8,140.4c-6.8,0.8-13.5,2-20.5,3.2c-2.8,0.5-5.6,1-8.5,1.5h-0.3l0.1,0.3c1.3,4.5,3.8,7,7.5,7.5
	c1.5,0.2,3,0.3,4.5,0.3c1.2,0,2.5,0,3.7-0.1h1.4c4.5-0.1,9.1-0.3,13.6-0.5l6.9-0.3l6.2-0.2c5.4-0.2,11-0.4,16.5-0.6
	c0.7,0,1.4-0.4,1.8-1c0.1-0.7-0.1-1.5-0.7-2l-1-0.7c-1.3-1-2.8-1.8-4.4-2.4c-4.1-1-8.3-1.8-12.4-2.6l-2.4-0.4
	c-1.1-0.2-2.3-0.5-3.5-0.8C95.6,140.8,92.7,140.1,89.8,140.4z M101.9,142.6c4.9,0.9,9.9,1.8,14.8,3c1.9,0.5,3.6,1.9,5.4,3
	c0.5,0.4,0.7,1.1,0.6,1.7c-0.4,0.5-0.9,0.8-1.6,0.9c-7.6,0.3-15.2,0.6-22.8,0.9c-6.8,0.3-13.6,0.6-20.5,0.8
	c-3.2,0.2-6.4,0.2-9.6-0.1c-4-0.5-6.1-3.4-7.3-7.3c9.9-1.7,19.4-3.7,29-4.8C93.8,140.3,97.9,141.8,101.9,142.6L101.9,142.6z"/>
<path class="st0" d="M85.3,154.1c-2.4,0.1-4.7,0.2-7,0.3h-0.1l-0.8,1.1l0.9,0.3c0.4,0.1,0.9,0.2,1.3,0.4l8.8,3
	c9.7,3.3,19.8,6.7,29.6,10c0.3,0.1,0.7,0.1,1,0.1c0.4,0,0.7,0,1-0.1s0.6-0.1,0.9-0.1h0.3V169c0-0.3,0-0.7,0-1c0.1-0.8,0-1.6-0.3-2.3
	c-1.5-2.1-3.2-4.1-5.2-5.7c-4.1-3.2-8.6-6.3-13.9-6.4C96.4,153.6,90.7,153.9,85.3,154.1z M120.7,165.9c0.5,0.7,0.2,2.1,0.2,3.1
	c-1,0.2-1.9,0.2-2.9,0c-12.8-4.3-25.7-8.7-38.5-13.1c-0.6-0.2-1.2-0.4-1.9-0.6l0.5-0.7c7.9-0.3,15.8-1,23.6-0.8
	c5.3,0.1,9.7,3.1,13.7,6.3C117.6,161.9,119.3,163.8,120.7,165.9L120.7,165.9z"/>
<path class="st0" d="M32,56.4c0.6,0.4,1.1,0.8,1.6,1.3c1.2,1.2,2.4,2.4,3.7,3.6c3,2.7,5.7,5.7,8,9C50.5,78.5,53.4,88,55.9,97
	c0.6,2.3,1.3,4.6,2,7l1.1,4l0.3-0.3c5.8-4.9,8.9-10.6,9.9-17.7c1.4,1.7,0.8,3.4,0.2,5l-0.1,0.2c-0.9,2.6,0.2,3.8,1.7,5.3
	c4.4,4.2,8.6,8.7,12.6,13.1l1.1,1.2c2.2,2.4,4.9,4.9,8.7,5.2h0.2c0.9-0.1,1.8-0.3,2.6-0.7c0.4-0.2,0.8-0.3,1.2-0.4l0.3-0.1l-0.1-0.3
	c-0.1-0.3-0.3-0.7-0.4-1c-0.2-0.8-0.6-1.5-1-2.2c-2.1-3.1-4.3-6.1-6.5-9.1c-4-5.7-8.2-11.6-12.1-17.5c-10-15.7-21.1-25.4-34.7-30.4
	c-2.6-0.9-5.2-1.7-7.8-2.5c-1.2-0.4-2.4-0.7-3.6-1.1l-0.2-0.1l-0.4,1.2l0.1,0.1C31.5,56,31.8,56.2,32,56.4z M31.7,54.8
	c3.8,1.2,7.6,2.2,11.4,3.6c15.4,5.7,26,16.8,34.6,30.3c5.8,9.1,12.4,17.8,18.5,26.7c0.6,1,1,2.1,1.4,3.2c-1.3,0.4-2.6,1.2-3.9,1.1
	c-3.6-0.2-6.2-2.5-8.5-5.1c-4.5-4.9-9-9.8-13.8-14.3c-1.7-1.6-2.4-2.7-1.7-5c0.6-1.8,1.4-3.9-0.6-5.9c-0.9,7.1-3.9,12.9-9.9,18.1
	c-1.1-4-2.1-7.3-3-10.7c-2.6-9.3-5.4-18.6-10.6-26.7c-3-4.8-7.7-8.5-11.7-12.6c-0.8-0.7-1.6-1.3-2.4-1.9L31.7,54.8z"/>
<path class="st0" d="M87.4,160.3c-2.4-0.6-4.8-1.5-7.1-2.5l-0.3-0.1l-0.4,1.2l23,15.2v-0.4c0-0.4,0.1-0.7,0.1-1
	c0.1-0.4,0.1-0.8,0-1.2l-0.8-1.1c-0.8-1.5-1.8-2.9-3-4.2C95.7,162.8,91.5,161.5,87.4,160.3z M102.5,171.6c0.2,0.3,0,1-0.1,2
	l-22.4-14.8l0.3-0.7c6,3.1,13.4,3,18.5,8.2C100.1,167.9,101.4,169.7,102.5,171.6L102.5,171.6z"/>
<path class="st0" d="M16.1,50.6c-1.5-0.4-3-0.7-4.5-0.9c-1-0.2-2-0.3-3-0.6c-0.4-0.1-0.8-0.3-1.1-0.5l-0.4-0.2l0.2-0.7
	c0.7,0.1,1.4,0.1,2.1,0.2c1.7,0.1,3.4,0.3,5,0.7c1.8,0.5,3.6,1.2,5.3,1.8c1.5,0.6,3.1,1.2,4.6,1.6c0.9,0.3,1.8,0.5,2.8,0.6l0.2-0.2
	c-1-0.2-1.9-0.4-2.9-0.7c-3.4-1-6.6-2.5-9.9-3.4c-2.4-0.5-4.8-0.8-7.3-1l-0.3,1.1c0.5,0.4,1.1,0.7,1.7,0.9c2.5,0.6,5,0.8,7.5,1.5
	c3.3,0.9,6.5,2.1,9.6,3.7l0.2-0.2C22.7,52.7,19.5,51.5,16.1,50.6z"/>
<path class="st0" d="M67.2,101.4l-0.3,0.4l-1.8,2c-1.5,1.8-3,3.4-4.4,5.1c-0.5,0.7-0.7,1.6-0.6,2.5c1.1,5,2.4,9.8,3.6,14.7
	c0.6,2.5,2.2,4,4.5,4.2c0.5,0.1,1.1,0.1,1.6,0.1c0.9,0,1.9-0.1,2.9-0.1c0.7,0,1.5-0.1,2.2-0.1h0.3l-8-28.4L67.2,101.4z M68.3,130.2
	c-2.3-0.2-3.7-1.8-4.3-4.1c-1.2-4.9-2.5-9.8-3.6-14.7c-0.1-0.8,0.1-1.6,0.6-2.3c1.9-2.4,3.9-4.6,6.1-7.2L75,130
	C72.8,130.2,70.6,130.3,68.3,130.2L68.3,130.2z"/>
<path class="st0" d="M246.1,198h0.2c0.2,0,0.5,0,0.7,0h0.7l-0.5,0.5c-0.7,0.6-1.5,1.2-2.4,1.6c0,0.1-2.6,0.6-2.6,0.7
	s2.6-0.5,2.7-0.5c1.5-0.7,2.9-1.6,4.1-2.8c0.2-0.2,0.5-0.4,0.7-0.6c10.8-19.6,16.4-41.5,16.4-63.9c0-73.3-59.7-133-133-133
	C91.7,0,52.6,19.3,27.4,52.2l2,0.3l0.8,0.1C54.9,21,92.9,2.5,133,2.5c72,0,130.5,58.5,130.5,130.5
	C263.6,155.9,257.6,178.3,246.1,198z"/>
<path class="st0" d="M223.5,227c-24.3,23.5-56.7,36.6-90.5,36.5C61,263.5,2.5,205,2.5,133c0-17.5,3.5-34.9,10.4-51
	c-0.2,0-0.4,0.1-0.5,0.1c-0.6,0.1-1.1,0.2-1.7,0.1h-0.6C3.4,98.3,0,115.6,0,133.1c0,73.4,59.7,133,133,133c35,0,68.7-13.8,93.5-38.5
	l-1.1-0.2C224.8,227.3,224.1,227.1,223.5,227z"/>
<path class="st0" d="M226,224.6l-0.4,1.2l-0.2-0.1l-0.4-0.1l-1,0.9c0.5,0.1,1.1,0.2,1.6,0.3l1.5,0.2c0.7-0.7,1.5-1.5,2.2-2.2
	c-0.8-0.4-1.5-0.9-2.2-1.4L226,224.6L226,224.6L226,224.6z"/>
<path class="st0" d="M246.4,198.6h-0.1h-0.4l-0.4,0.7C245.8,199.1,246.1,198.9,246.4,198.6z"/>
<path class="st0" d="M225.5,227.1c-0.6-0.1-1.2-0.2-1.8-0.4l-0.2,0.2c0.6,0.1,1.3,0.3,2,0.4l1.1,0.2l0.2-0.3L225.5,227.1z"/>
<path class="st0" d="M227.2,223.3c0.7,0.5,1.5,0.9,2.2,1.4l0.2-0.2c-0.8-0.4-1.5-0.9-2.2-1.4L227.2,223.3z"/>
<path class="st0" d="M247.1,198.4c-0.6,0.5-1.2,1-1.9,1.3l-0.3,0.5c0.8-0.4,1.6-1,2.4-1.6l0.5-0.5h-0.7c-0.2,0-0.5,0-0.7,0h-0.2
	l-0.1,0.2C246.4,198.3,246.7,198.4,247.1,198.4z"/>
<path class="st0" d="M225.4,225.5l0.2-0.5l-0.4,0.4L225.4,225.5z"/>
<path class="st0" d="M225.5,225.8l0.4-1.2l0,0l-0.4,0.4l-0.2,0.5l-0.2-0.1l-0.2,0.2l0.4,0.1L225.5,225.8z"/>
<path class="st0" d="M225.6,226.9c-0.5-0.1-1.1-0.2-1.6-0.3l-0.2,0.2c0.6,0.1,1.2,0.2,1.8,0.4l1.3,0.2l0.2-0.2L225.6,226.9z"/>
<path class="st0" d="M227,223.5c0.7,0.5,1.5,0.9,2.2,1.4l0.2-0.2c-0.8-0.4-1.5-0.9-2.2-1.4L227,223.5z"/>
<path class="st0" d="M246.4,198.6c-0.3,0.2-0.7,0.5-1,0.7l-0.2,0.4c0.7-0.4,1.3-0.8,1.9-1.3c-0.4,0-0.7,0-1.1-0.1l-0.1,0.3h0.4
	L246.4,198.6L246.4,198.6z"/>
<path class="st0" d="M27.1,52.7l-1.2,1.6c0.8,0.4,1.5,0.8,2.2,1.2c0.6-0.8,1.2-1.6,1.8-2.4L29.3,53C28.6,53,27.8,52.8,27.1,52.7z"/>
<path class="st0" d="M10.6,81.7h0.1c0.5,0.1,1,0.1,1.5,0c0.3-0.1,0.6-0.2,0.9-0.2l0.6-1.4C12.6,80.4,11.5,80.9,10.6,81.7z"/>
<path class="st0" d="M27.9,55.8c-0.7-0.4-1.5-0.8-2.2-1.2l-0.1,0.2c0.8,0.4,1.5,0.8,2.2,1.2L27.9,55.8z"/>
<path class="st0" d="M12.4,82.2c0.2-0.1,0.4-0.1,0.5-0.1l0.1-0.3c-0.2,0.1-0.5,0.1-0.7,0.2c-0.7,0.1-1.4,0.1-2.1,0l-0.1,0.3h0.6
	C11.2,82.3,11.8,82.3,12.4,82.2z"/>
<path class="st0" d="M13.9,79.8l0.1-0.3c-1.3,0.3-2.5,0.8-3.5,1.6l-0.2,0.5C11.4,80.7,12.6,80.1,13.9,79.8z"/>
<path class="st0" d="M30.1,52.9l0.2-0.2l-0.8-0.1l-2-0.3l-0.2,0.2C28.2,52.6,29.1,52.8,30.1,52.9z"/>
<path class="st0" d="M25.8,54.3l-0.2,0.2c0.8,0.4,1.5,0.8,2.2,1.2l0.2-0.2C27.3,55.1,26.6,54.7,25.8,54.3z"/>
<path class="st0" d="M29.3,53.1l0.6,0.1l0.2-0.2c-0.9-0.2-1.9-0.3-2.8-0.5l-0.2,0.2C27.8,52.8,28.6,53,29.3,53.1z"/>
<path class="st0" d="M12.2,81.7c-0.5,0.1-1,0.1-1.5,0h-0.1c0.9-0.8,2-1.3,3.2-1.6l0.1-0.3c-1.3,0.3-2.5,0.9-3.6,1.8l-0.1,0.3
	c0.7,0.1,1.4,0.1,2.1,0c0.2-0.1,0.5-0.1,0.7-0.2l0.1-0.3C12.9,81.5,12.5,81.6,12.2,81.7z"/>
</svg>
