<svg xmlns="http://www.w3.org/2000/svg" viewBox="0 0 97.77 97.77"><defs><style>.cls-1{fill:#f9c9b4;}.cls-2{fill:none;stroke:#f9c9b4;stroke-miterlimit:10;stroke-width:3px;}</style></defs><g id="Livello_2" data-name="Livello 2"><g id="Livello_1-2" data-name="Livello 1"><path class="cls-1" d="M48.07,47.93h0a28.06,28.06,0,0,0-28,28v1.33a17.9,17.9,0,0,0,12.44,17l10.71.44a17.9,17.9,0,0,0,11.23-.1l9.42-.2A17.9,17.9,0,0,0,76,77.47V75.9A28.06,28.06,0,0,0,48.07,47.93Z"/><path class="cls-1" d="M48.88,17.52h0A14.44,14.44,0,0,0,34.49,31.91h0A14.43,14.43,0,0,0,48.88,46.3h0a14.43,14.43,0,0,0,14.4-14.39h0A14.44,14.44,0,0,0,48.88,17.52Z"/><circle class="cls-2" cx="48.88" cy="48.88" r="47.38"/></g></g></svg>